<?xml version="1.0" encoding="UTF-8"?>
<!DOCTYPE svg PUBLIC "-//W3C//DTD SVG 1.1//EN" "http://www.w3.org/Graphics/SVG/1.1/DTD/svg11.dtd">
<!-- Creator: CorelDRAW X5 -->
<svg xmlns="http://www.w3.org/2000/svg" xml:space="preserve" width="50.7998mm" height="21.4088mm" style="shape-rendering:geometricPrecision; text-rendering:geometricPrecision; image-rendering:optimizeQuality; fill-rule:evenodd; clip-rule:evenodd"
viewBox="0 0 5080 2141"
 xmlns:xlink="http://www.w3.org/1999/xlink"
 xmlns:svg="http://www.w3.org/2000/svg">
 <defs>
  <style type="text/css">
   <![CDATA[
    .fil0 {fill:#2D2A70;fill-rule:nonzero}
    .fil1 {fill:#ED6B23;fill-rule:nonzero}
   ]]>
  </style>
 </defs>
 <g id="Layer_x0020_1">
  <metadata id="CorelCorpID_0Corel-Layer"/>
 </g>
 <g id="__x0023_Layer_x0020_1">
  <metadata id="CorelCorpID_1Corel-Layer"/>
  <path class="fil0" d="M1939 1697l-447 -734 992 -964 -784 0c-61,0 -120,24 -164,67l-695 679 78 -746 -708 0 -211 2013c-7,64 39,120 103,127 4,0 8,1 12,1l579 0 48 -452 213 -207 375 593c26,41 70,65 118,65l267 0 222 -443z"/>
  <path class="fil1" d="M2431 2141l958 -583 122 495c13,52 59,88 112,88l620 0 -277 -935 1055 -642 4 -43 -3309 1619 713 0zm1437 -1269l0 0 -259 -871 -610 0c-127,0 -244,72 -301,186l-871 1734 3205 -1462 5 -49 -1170 464zm-1030 408l0 0 214 -452 56 -125c9,-19 32,-28 51,-19 11,5 18,14 21,26l98 396 -440 174z"/>
  <path class="fil0" d="M4646 0c-172,0 -317,130 -334,301l-43 412 770 -305 42 -408 -434 0zm-527 2141l0 0 741 0 162 -1576 -788 480 -115 1096z"/>
 </g>
</svg>
